<mxfile host="app.diagrams.net" modified="2023-11-16T12:18:08.816Z" agent="Mozilla/5.0 (Macintosh; Intel Mac OS X 10_15_7) AppleWebKit/537.36 (KHTML, like Gecko) Chrome/119.0.0.0 Safari/537.36" etag="albJyIONUOtF31ybPwMn" version="22.1.2" type="github">
  <diagram id="C5RBs43oDa-KdzZeNtuy" name="Page-1">
    <mxGraphModel dx="1769" dy="2132" grid="1" gridSize="10" guides="1" tooltips="1" connect="1" arrows="1" fold="1" page="1" pageScale="1" pageWidth="827" pageHeight="1169" math="0" shadow="0">
      <root>
        <mxCell id="WIyWlLk6GJQsqaUBKTNV-0" />
        <mxCell id="WIyWlLk6GJQsqaUBKTNV-1" parent="WIyWlLk6GJQsqaUBKTNV-0" />
        <mxCell id="iJw0LIFVypzQFhsucQgz-4" value="" style="rounded=0;whiteSpace=wrap;html=1;fillColor=#fff2cc;strokeColor=#d6b656;" vertex="1" parent="WIyWlLk6GJQsqaUBKTNV-1">
          <mxGeometry x="99" y="-100" width="651" height="685" as="geometry" />
        </mxCell>
        <mxCell id="WIyWlLk6GJQsqaUBKTNV-3" value="&lt;font style=&quot;font-size: 17px;&quot;&gt;&lt;div style=&quot;&quot;&gt;&lt;div style=&quot;font-family: Menlo, Monaco, &amp;quot;Courier New&amp;quot;, monospace; line-height: 18px;&quot;&gt;&lt;div style=&quot;&quot;&gt;&lt;span style=&quot;background-color: rgb(255, 255, 255);&quot;&gt;    threading.Thread&lt;/span&gt;&lt;/div&gt;&lt;div style=&quot;&quot;&gt;&lt;span style=&quot;background-color: rgb(255, 255, 255);&quot;&gt;(target=prompt_worker, daemon=True, args=(q, server,)).start()&lt;/span&gt;&lt;/div&gt;&lt;/div&gt;&lt;/div&gt;&lt;br&gt;&lt;/font&gt;" style="rounded=1;whiteSpace=wrap;html=1;fontSize=12;glass=0;strokeWidth=1;shadow=0;" parent="WIyWlLk6GJQsqaUBKTNV-1" vertex="1">
          <mxGeometry x="230" y="190" width="380" height="100" as="geometry" />
        </mxCell>
        <mxCell id="iJw0LIFVypzQFhsucQgz-0" value="&lt;div style=&quot;font-family: Menlo, Monaco, &amp;quot;Courier New&amp;quot;, monospace; line-height: 18px; font-size: 17px;&quot;&gt;&lt;div style=&quot;&quot;&gt;&lt;span style=&quot;background-color: rgb(255, 255, 255);&quot;&gt;    loop = asyncio.new_event_loop()&lt;/span&gt;&lt;/div&gt;&lt;div style=&quot;&quot;&gt;    &lt;span style=&quot;background-color: rgb(255, 255, 255);&quot;&gt;asyncio.set_event_loop(loop)&lt;/span&gt;&lt;/div&gt;&lt;div style=&quot;&quot;&gt;    &lt;span style=&quot;background-color: rgb(255, 255, 255);&quot;&gt;server = server.PromptServer(loop)&lt;/span&gt;&lt;/div&gt;&lt;div style=&quot;&quot;&gt;&lt;span style=&quot;background-color: rgb(255, 255, 255);&quot;&gt;&lt;br&gt;&lt;/span&gt;&lt;/div&gt;&lt;/div&gt;" style="rounded=1;whiteSpace=wrap;html=1;fontSize=12;glass=0;strokeWidth=1;shadow=0;" vertex="1" parent="WIyWlLk6GJQsqaUBKTNV-1">
          <mxGeometry x="220" y="10" width="400" height="100" as="geometry" />
        </mxCell>
        <mxCell id="iJw0LIFVypzQFhsucQgz-3" value="&lt;font style=&quot;font-size: 17px; background-color: rgb(255, 255, 255);&quot;&gt;&lt;div style=&quot;&quot;&gt;&lt;div style=&quot;font-family: Menlo, Monaco, &amp;quot;Courier New&amp;quot;, monospace; line-height: 18px;&quot;&gt;&lt;div style=&quot;&quot;&gt;&lt;/div&gt;&lt;/div&gt;&lt;/div&gt;&lt;div style=&quot;font-family: Menlo, Monaco, &amp;quot;Courier New&amp;quot;, monospace; line-height: 18px;&quot;&gt;&lt;div style=&quot;&quot;&gt;startup_server(address, port):&lt;/div&gt;&lt;div style=&quot;&quot;&gt;            import webbrowser&lt;/div&gt;&lt;div style=&quot;&quot;&gt;            if os.name == &#39;nt&#39; and address == &#39;0.0.0.0&#39;:&lt;/div&gt;&lt;div style=&quot;&quot;&gt;                address = &#39;127.0.0.1&#39;&lt;/div&gt;&lt;div style=&quot;&quot;&gt;            webbrowser.open(f&quot;http://{address}:{port}&quot;)&lt;/div&gt;&lt;/div&gt;&lt;/font&gt;" style="rounded=1;whiteSpace=wrap;html=1;fontSize=12;glass=0;strokeWidth=1;shadow=0;" vertex="1" parent="WIyWlLk6GJQsqaUBKTNV-1">
          <mxGeometry x="180" y="360" width="520" height="140" as="geometry" />
        </mxCell>
        <mxCell id="iJw0LIFVypzQFhsucQgz-5" value="Text" style="text;html=1;strokeColor=none;fillColor=none;align=center;verticalAlign=middle;whiteSpace=wrap;rounded=0;" vertex="1" parent="WIyWlLk6GJQsqaUBKTNV-1">
          <mxGeometry x="480" y="190" width="60" height="30" as="geometry" />
        </mxCell>
        <mxCell id="iJw0LIFVypzQFhsucQgz-6" value="&lt;font style=&quot;font-size: 19px;&quot;&gt;创建Event Loop&lt;/font&gt;" style="text;html=1;strokeColor=none;fillColor=none;align=center;verticalAlign=middle;whiteSpace=wrap;rounded=0;" vertex="1" parent="WIyWlLk6GJQsqaUBKTNV-1">
          <mxGeometry x="334" y="-50" width="160" height="70" as="geometry" />
        </mxCell>
        <mxCell id="iJw0LIFVypzQFhsucQgz-7" value="&lt;span style=&quot;font-size: 19px;&quot;&gt;新建prompt_worker守护进程&lt;/span&gt;" style="text;html=1;strokeColor=none;fillColor=none;align=center;verticalAlign=middle;whiteSpace=wrap;rounded=0;" vertex="1" parent="WIyWlLk6GJQsqaUBKTNV-1">
          <mxGeometry x="301.5" y="131" width="246" height="70" as="geometry" />
        </mxCell>
        <mxCell id="iJw0LIFVypzQFhsucQgz-8" value="&lt;span style=&quot;font-size: 19px;&quot;&gt;开启服务&lt;/span&gt;" style="text;html=1;strokeColor=none;fillColor=none;align=center;verticalAlign=middle;whiteSpace=wrap;rounded=0;" vertex="1" parent="WIyWlLk6GJQsqaUBKTNV-1">
          <mxGeometry x="334" y="310" width="160" height="70" as="geometry" />
        </mxCell>
        <mxCell id="iJw0LIFVypzQFhsucQgz-9" value="" style="rounded=0;whiteSpace=wrap;html=1;fillColor=#f8cecc;strokeColor=#b85450;" vertex="1" parent="WIyWlLk6GJQsqaUBKTNV-1">
          <mxGeometry x="970" y="-100" width="651" height="685" as="geometry" />
        </mxCell>
        <mxCell id="iJw0LIFVypzQFhsucQgz-10" value="&lt;font style=&quot;font-size: 17px;&quot;&gt;&lt;div style=&quot;&quot;&gt;&lt;div style=&quot;font-family: Menlo, Monaco, &amp;quot;Courier New&amp;quot;, monospace; line-height: 18px;&quot;&gt;&lt;div style=&quot;&quot;&gt;&lt;span style=&quot;background-color: rgb(255, 255, 255);&quot;&gt;    threading.Thread&lt;/span&gt;&lt;/div&gt;&lt;div style=&quot;&quot;&gt;&lt;span style=&quot;background-color: rgb(255, 255, 255);&quot;&gt;(target=prompt_worker, daemon=True, args=(q, server,)).start()&lt;/span&gt;&lt;/div&gt;&lt;/div&gt;&lt;/div&gt;&lt;br&gt;&lt;/font&gt;" style="rounded=1;whiteSpace=wrap;html=1;fontSize=12;glass=0;strokeWidth=1;shadow=0;" vertex="1" parent="WIyWlLk6GJQsqaUBKTNV-1">
          <mxGeometry x="1101" y="190" width="380" height="100" as="geometry" />
        </mxCell>
        <mxCell id="iJw0LIFVypzQFhsucQgz-11" value="&lt;div style=&quot;font-family: Menlo, Monaco, &amp;quot;Courier New&amp;quot;, monospace; line-height: 18px; font-size: 17px;&quot;&gt;&lt;div style=&quot;&quot;&gt;&lt;span style=&quot;background-color: rgb(255, 255, 255);&quot;&gt;    loop = asyncio.new_event_loop()&lt;/span&gt;&lt;/div&gt;&lt;div style=&quot;&quot;&gt;    &lt;span style=&quot;background-color: rgb(255, 255, 255);&quot;&gt;asyncio.set_event_loop(loop)&lt;/span&gt;&lt;/div&gt;&lt;div style=&quot;&quot;&gt;    &lt;span style=&quot;background-color: rgb(255, 255, 255);&quot;&gt;server = server.PromptServer(loop)&lt;/span&gt;&lt;/div&gt;&lt;div style=&quot;&quot;&gt;&lt;span style=&quot;background-color: rgb(255, 255, 255);&quot;&gt;&lt;br&gt;&lt;/span&gt;&lt;/div&gt;&lt;/div&gt;" style="rounded=1;whiteSpace=wrap;html=1;fontSize=12;glass=0;strokeWidth=1;shadow=0;" vertex="1" parent="WIyWlLk6GJQsqaUBKTNV-1">
          <mxGeometry x="1091" y="10" width="400" height="100" as="geometry" />
        </mxCell>
        <mxCell id="iJw0LIFVypzQFhsucQgz-12" value="&lt;font style=&quot;font-size: 17px; background-color: rgb(255, 255, 255);&quot;&gt;&lt;div style=&quot;&quot;&gt;&lt;div style=&quot;font-family: Menlo, Monaco, &amp;quot;Courier New&amp;quot;, monospace; line-height: 18px;&quot;&gt;&lt;div style=&quot;&quot;&gt;&lt;/div&gt;&lt;/div&gt;&lt;/div&gt;&lt;div style=&quot;font-family: Menlo, Monaco, &amp;quot;Courier New&amp;quot;, monospace; line-height: 18px;&quot;&gt;&lt;div style=&quot;&quot;&gt;startup_server(address, port):&lt;/div&gt;&lt;div style=&quot;&quot;&gt;            import webbrowser&lt;/div&gt;&lt;div style=&quot;&quot;&gt;            if os.name == &#39;nt&#39; and address == &#39;0.0.0.0&#39;:&lt;/div&gt;&lt;div style=&quot;&quot;&gt;                address = &#39;127.0.0.1&#39;&lt;/div&gt;&lt;div style=&quot;&quot;&gt;            webbrowser.open(f&quot;http://{address}:{port}&quot;)&lt;/div&gt;&lt;/div&gt;&lt;/font&gt;" style="rounded=1;whiteSpace=wrap;html=1;fontSize=12;glass=0;strokeWidth=1;shadow=0;" vertex="1" parent="WIyWlLk6GJQsqaUBKTNV-1">
          <mxGeometry x="1051" y="360" width="520" height="140" as="geometry" />
        </mxCell>
        <mxCell id="iJw0LIFVypzQFhsucQgz-13" value="Text" style="text;html=1;strokeColor=none;fillColor=none;align=center;verticalAlign=middle;whiteSpace=wrap;rounded=0;" vertex="1" parent="WIyWlLk6GJQsqaUBKTNV-1">
          <mxGeometry x="1351" y="190" width="60" height="30" as="geometry" />
        </mxCell>
        <mxCell id="iJw0LIFVypzQFhsucQgz-14" value="&lt;font style=&quot;font-size: 19px;&quot;&gt;创建Event Loop&lt;/font&gt;" style="text;html=1;strokeColor=none;fillColor=none;align=center;verticalAlign=middle;whiteSpace=wrap;rounded=0;" vertex="1" parent="WIyWlLk6GJQsqaUBKTNV-1">
          <mxGeometry x="1205" y="-50" width="160" height="70" as="geometry" />
        </mxCell>
        <mxCell id="iJw0LIFVypzQFhsucQgz-15" value="&lt;span style=&quot;font-size: 19px;&quot;&gt;新建prompt_worker守护进程&lt;/span&gt;" style="text;html=1;strokeColor=none;fillColor=none;align=center;verticalAlign=middle;whiteSpace=wrap;rounded=0;" vertex="1" parent="WIyWlLk6GJQsqaUBKTNV-1">
          <mxGeometry x="1172.5" y="131" width="246" height="70" as="geometry" />
        </mxCell>
        <mxCell id="iJw0LIFVypzQFhsucQgz-16" value="&lt;span style=&quot;font-size: 19px;&quot;&gt;开启服务&lt;/span&gt;" style="text;html=1;strokeColor=none;fillColor=none;align=center;verticalAlign=middle;whiteSpace=wrap;rounded=0;" vertex="1" parent="WIyWlLk6GJQsqaUBKTNV-1">
          <mxGeometry x="1205" y="310" width="160" height="70" as="geometry" />
        </mxCell>
        <mxCell id="iJw0LIFVypzQFhsucQgz-18" value="" style="shape=singleArrow;whiteSpace=wrap;html=1;fillColor=#fff2cc;strokeColor=#d6b656;" vertex="1" parent="WIyWlLk6GJQsqaUBKTNV-1">
          <mxGeometry x="810" y="200" width="100" height="60" as="geometry" />
        </mxCell>
      </root>
    </mxGraphModel>
  </diagram>
</mxfile>
